<?xml version="1.0" encoding="utf-8"?>
<!-- Generator: Adobe Illustrator 18.1.1, SVG Export Plug-In . SVG Version: 6.00 Build 0)  -->
<svg version="1.1" id="Capa_1" xmlns="http://www.w3.org/2000/svg" xmlns:xlink="http://www.w3.org/1999/xlink" x="0px" y="0px"
	 viewBox="154 -168.7 365 365" enable-background="new 154 -168.7 365 365" xml:space="preserve">
<g>
	<g>
		<path fill="#515050" d="M514.7-12.9l-170-149c-4.7-4.1-11.8-4.1-16.5,0l-170,149c-5.2,4.6-5.7,12.4-1.2,17.6
			c4.5,5.2,12.4,5.7,17.6,1.2l13.2-11.5v185.9c0,6.9,5.6,12.5,12.5,12.5h94.7h82.7h94.7c6.9,0,12.5-5.6,12.5-12.5V-5.7l13.2,11.5
			c2.4,2.1,5.3,3.1,8.2,3.1c3.5,0,6.9-1.4,9.4-4.3C520.5-0.5,519.9-8.4,514.7-12.9z M307.6,167.7v-103h57.7v103L307.6,167.7
			L307.6,167.7z M460.1-27.5v195.2h-69.7V52.3c0-6.9-5.6-12.5-12.5-12.5h-82.7c-6.9,0-12.5,5.6-12.5,12.5v115.5h-69.7V-27.5
			c0,0,0-0.1,0-0.1l123.6-108.3L460.1-27.5C460.1-27.6,460.1-27.5,460.1-27.5z"/>
		<path fill="#515050" d="M308.5-47.9c0,6.9,5.6,12.5,12.5,12.5h31c6.9,0,12.5-5.6,12.5-12.5s-5.6-12.5-12.5-12.5h-31
			C314.1-60.4,308.5-54.8,308.5-47.9z"/>
	</g>
</g>
</svg>
