<?xml version="1.0" encoding="utf-8"?>
<!-- Generator: Adobe Illustrator 18.1.1, SVG Export Plug-In . SVG Version: 6.00 Build 0)  -->
<svg version="1.1" id="Capa_1" xmlns="http://www.w3.org/2000/svg" xmlns:xlink="http://www.w3.org/1999/xlink" x="0px" y="0px"
	 viewBox="0 0 283.5 283.5" enable-background="new 0 0 283.5 283.5" xml:space="preserve">
<g display="none">
	<g display="inline">
		<path fill="#515050" d="M280.2,120.9L148.1,5.2c-3.7-3.2-9.2-3.2-12.8,0L3.3,120.9c-4,3.6-4.4,9.6-0.9,13.7S12,139,16,135.5
			l10.3-8.9v144.4c0,5.4,4.3,9.7,9.7,9.7h73.5h64.2h73.5c5.4,0,9.7-4.3,9.7-9.7V126.5l10.3,8.9c1.9,1.6,4.1,2.4,6.4,2.4
			c2.7,0,5.4-1.1,7.3-3.3C284.7,130.5,284.2,124.4,280.2,120.9z M119.3,261.2v-80h44.8v80H119.3L119.3,261.2z M237.8,109.6v151.6
			h-54.1v-89.6c0-5.4-4.3-9.7-9.7-9.7h-64.2c-5.4,0-9.7,4.3-9.7,9.7v89.7H45.9V109.6v-0.1l96-84.1L237.8,109.6
			C237.8,109.5,237.8,109.6,237.8,109.6z"/>
		<path fill="#515050" d="M120,93.7c0,5.4,4.3,9.7,9.7,9.7h24.1c5.4,0,9.7-4.3,9.7-9.7s-4.3-9.7-9.7-9.7h-24.1
			C124.4,84,120,88.4,120,93.7z"/>
	</g>
</g>
<g>
	<g id="more-vert">
		<path fill="#515050" d="M141.7,72.7c19,0,34.5-15.5,34.5-34.5S160.7,3.7,141.7,3.7s-34.5,15.5-34.5,34.5S122.8,72.7,141.7,72.7z
			 M141.7,107.2c-19,0-34.5,15.5-34.5,34.5s15.5,34.5,34.5,34.5s34.5-15.5,34.5-34.5S160.7,107.2,141.7,107.2z M141.7,210.7
			c-19,0-34.5,15.5-34.5,34.5s15.5,34.5,34.5,34.5s34.5-15.5,34.5-34.5S160.7,210.7,141.7,210.7z"/>
	</g>
</g>
</svg>
